<svg width="33" height="33" viewBox="0 0 33 33" fill="none" xmlns="http://www.w3.org/2000/svg">
<path d="M31.1981 0.553223H1.73902C1.03056 0.553223 0.458191 1.12559 0.458191 1.83405V31.2932C0.458191 32.0016 1.03056 32.574 1.73902 32.574H31.1981C31.9066 32.574 32.479 32.0016 32.479 31.2932V1.83405C32.479 1.12559 31.9066 0.553223 31.1981 0.553223ZM9.95635 27.8389H5.20527V12.557H9.95635V27.8389ZM7.58281 10.4677C7.03817 10.4677 6.50575 10.3061 6.05289 10.0036C5.60003 9.70097 5.24707 9.27089 5.03865 8.7677C4.83022 8.26451 4.77568 7.71081 4.88194 7.17663C4.9882 6.64245 5.25047 6.15177 5.63559 5.76665C6.02072 5.38152 6.51139 5.11925 7.04558 5.013C7.57976 4.90674 8.13345 4.96127 8.63664 5.1697C9.13983 5.37813 9.56991 5.73109 9.8725 6.18395C10.1751 6.63681 10.3366 7.16922 10.3366 7.71387C10.3326 9.23486 9.0998 10.4677 7.58281 10.4677ZM27.7439 27.8389H22.9968V20.4061C22.9968 18.633 22.9648 16.3555 20.5272 16.3555C18.0576 16.3555 17.6774 18.2847 17.6774 20.278V27.8389H12.9343V12.557H17.4892V14.6464H17.5533C18.1857 13.4456 19.7347 12.1768 22.0482 12.1768C26.8593 12.1768 27.7439 15.3428 27.7439 19.4575V27.8389Z" fill="white"/>
</svg>
