<svg width="32" height="40" viewBox="0 0 32 40" fill="none" xmlns="http://www.w3.org/2000/svg">
<path d="M14.8884 38.8805C15.2128 39.1122 15.6014 39.2367 16.0001 39.2367C16.3987 39.2367 16.7873 39.1122 17.1117 38.8805C17.6944 38.4684 31.389 28.5804 31.3334 16.237C31.3334 7.7826 24.4545 0.903687 16.0001 0.903687C7.54565 0.903687 0.666734 7.7826 0.666734 16.2274C0.61115 28.5804 14.3057 38.4684 14.8884 38.8805ZM16.0001 4.73702C22.3423 4.73702 27.5001 9.89477 27.5001 16.2466C27.5403 24.7528 19.0897 32.3907 16.0001 34.8958C12.9123 32.3888 4.45982 24.7489 4.50007 16.237C4.50007 9.89477 9.65782 4.73702 16.0001 4.73702Z" fill="white"/>
</svg>
