<svg width="48" height="52" viewBox="0 0 48 52" fill="none" xmlns="http://www.w3.org/2000/svg">
<g clip-path="url(#clip0)">
<path d="M44.2026 41.7312C43.8482 44.3817 42.076 46.6752 39.5949 47.6945C38.3795 48.2036 37.0631 48.3569 35.7464 48.2036C34.4807 48.0509 33.2147 47.6431 31.8983 46.8794C30.0752 45.8591 28.2523 44.2799 26.1257 41.9354C29.4679 37.8073 31.4927 34.0359 32.2526 30.6729C32.6071 29.0928 32.6576 27.6657 32.506 26.3405C32.3037 25.0666 31.8478 23.894 31.1386 22.8749C29.5689 20.5817 26.9361 19.2565 23.9992 19.2565C21.0622 19.2565 18.4293 20.6327 16.8596 22.8749C16.1504 23.8941 15.6952 25.0666 15.4924 26.3405C15.29 27.6657 15.3405 29.1436 15.7457 30.6731C16.5051 34.0357 18.581 37.8583 21.8726 41.9856C19.7965 44.3307 17.923 45.9104 16.0999 46.9299C14.7835 47.6945 13.5174 48.1023 12.2517 48.2546C10.9469 48.4013 9.62626 48.2266 8.40343 47.7455C5.92216 46.7262 4.1503 44.432 3.7956 41.782C3.64395 40.5083 3.74511 39.2344 4.25146 37.8073C4.40311 37.2973 4.65665 36.7886 4.90946 36.1766C5.26416 35.3616 5.66935 34.4946 6.074 33.6279L6.12503 33.5267C9.61846 25.9327 13.3658 18.1864 17.2648 10.6441L17.4166 10.3377C17.8218 9.57404 18.2264 8.75896 18.632 7.99415C19.0368 7.17852 19.4925 6.41389 20.0493 5.75089C21.1127 4.52763 22.5306 3.86518 24.1003 3.86518C25.6701 3.86518 27.0878 4.52763 28.1511 5.75107C28.7082 6.41389 29.1638 7.17852 29.569 7.99433C29.9742 8.75896 30.3789 9.57404 30.7841 10.3377L30.9364 10.6441C34.7844 18.2372 38.5317 25.9835 42.0255 33.5775V33.6279C42.4307 34.4436 42.7848 35.3616 43.19 36.1766C43.4434 36.7886 43.6964 37.2972 43.848 37.8073C44.2532 39.1322 44.4051 40.4069 44.2027 41.7312H44.2026ZM23.9992 39.3357C21.2651 35.8706 19.4925 32.6087 18.885 29.8574C18.6322 28.685 18.581 27.6657 18.7333 26.7483C18.8343 25.9327 19.1385 25.2188 19.543 24.6068C20.5052 23.2321 22.1254 22.3641 23.9992 22.3641C25.8727 22.3641 27.5436 23.1803 28.455 24.6068C28.8598 25.2188 29.1638 25.9327 29.265 26.7483C29.4168 27.6657 29.3662 28.7358 29.1132 29.8574C28.5057 32.5582 26.7332 35.8198 23.9992 39.3357ZM46.8357 36.6859C46.5827 36.0743 46.3293 35.412 46.0763 34.8514C45.6711 33.9345 45.2659 33.0675 44.9114 32.2519L44.8607 32.2014C41.3673 24.5564 37.62 16.8101 33.6703 9.16678L33.5187 8.86004C33.1135 8.09559 32.7083 7.27996 32.3037 6.4647C31.7969 5.54689 31.2904 4.57955 30.4806 3.66155C28.8596 1.62303 26.5309 0.501953 24.0495 0.501953C21.5177 0.501953 19.2393 1.62303 17.5681 3.5601C16.8089 4.47718 16.2519 5.44544 15.7455 6.36344C15.3403 7.17852 14.9351 7.99415 14.5301 8.75896L14.3783 9.06385C10.4797 16.7083 6.68187 24.4551 3.1879 32.0996L3.13741 32.2014C2.78271 33.0165 2.37752 33.8826 1.97233 34.8006C1.70144 35.4046 1.44828 36.0165 1.21317 36.6355C0.554617 38.5206 0.352296 40.3047 0.605289 42.139C1.16268 45.9614 3.69444 49.1726 7.18823 50.5991C8.50441 51.1601 9.87163 51.4147 11.2897 51.4147C11.6947 51.4147 12.2011 51.3637 12.6063 51.3124C14.277 51.1082 15.9985 50.5487 17.6692 49.5798C19.7457 48.4078 21.7206 46.7262 23.9483 44.2799C26.176 46.7262 28.2016 48.4079 30.227 49.5798C31.8983 50.5487 33.6197 51.1082 35.2906 51.3124C35.6957 51.3637 36.2021 51.4147 36.6071 51.4147C38.025 51.4147 39.4425 51.1601 40.7086 50.5991C44.253 49.1726 46.7341 45.9106 47.2912 42.139C47.6964 40.3549 47.4935 38.5722 46.8355 36.6857L46.8357 36.6859Z" fill="#E0565B"/>
</g>
<defs>
<clipPath id="clip0">
<rect width="47" height="51" fill="white" transform="translate(0.5 0.501953)"/>
</clipPath>
</defs>
</svg>
