<svg width="57" height="47" viewBox="0 0 57 47" fill="none" xmlns="http://www.w3.org/2000/svg">
<g clip-path="url(#clip0)">
<path d="M28.5656 0.00195312C13.5506 0.00195312 1.78713 18.862 0.674133 34.7913C5.38601 42.8647 16.7485 45.8994 28.5661 45.8994C40.3827 45.8994 51.7459 42.8647 56.4554 34.7911C55.3422 18.862 43.5802 0.00195312 28.5658 0.00195312" fill="#B6DEFF"/>
<path d="M52.5319 30.9969C52.5319 30.9969 49.2157 23.9186 45.845 19.7889C42.4718 15.6576 38.3526 11.1591 35.917 11.1591C33.4828 11.1591 26.6779 23.0538 23.5561 23.0538C20.4337 23.0538 18.811 17.6617 14.9721 17.6617C11.1318 17.6617 5.03038 30.6646 5.03038 30.6646L4.61694 32.8689C4.61694 32.8689 6.73663 42.1469 28.9122 42.1469C51.0886 42.1469 52.8609 33.0212 52.8609 33.0212L52.5322 30.9967" fill="#66CC66"/>
<path d="M23.9037 28.13C20.4597 28.13 18.6942 24.7752 17.7369 22.7044C16.8762 20.8389 16.7272 17.8936 14.2849 17.8111C14.5248 17.7172 14.7558 17.6617 14.9724 17.6617C18.8112 17.6617 20.4339 23.0538 23.5564 23.0538C26.6781 23.0538 33.483 11.1588 35.9173 11.1588C36.376 11.1588 36.8927 11.3186 37.4533 11.6028C37.0386 11.5488 36.5068 11.5864 36.0971 11.9922C35.3102 12.7692 28.1674 28.13 23.9037 28.13Z" fill="#17AD49"/>
</g>
<defs>
<clipPath id="clip0">
<rect width="56" height="46" fill="white" transform="translate(0.5 0.00195312)"/>
</clipPath>
</defs>
</svg>
