<svg width="35" height="28" viewBox="0 0 35 28" fill="none" xmlns="http://www.w3.org/2000/svg">
<path d="M34.1449 3.24901C32.9201 3.77736 31.5873 4.1576 30.2144 4.3057C31.6398 3.45889 32.7072 2.12108 33.2163 0.543258C31.8788 1.33893 30.4135 1.89687 28.8855 2.19233C28.2469 1.50959 27.4745 0.965692 26.6165 0.594522C25.7584 0.223351 24.8332 0.0328636 23.8983 0.0349287C20.1158 0.0349287 17.0739 3.10092 17.0739 6.86336C17.0739 7.3917 17.1379 7.92005 17.242 8.42838C11.5783 8.13218 6.52702 5.42643 3.16884 1.28374C2.55694 2.32888 2.23629 3.51889 2.24023 4.72997C2.24023 7.09951 3.44502 9.18887 5.28221 10.4177C4.19952 10.375 3.14219 10.0774 2.19621 9.5491V9.63316C2.19621 12.9513 4.54173 15.7011 7.66776 16.3335C7.08081 16.486 6.47701 16.564 5.87059 16.5657C5.4263 16.5657 5.00603 16.5216 4.58175 16.4616C5.44631 19.1673 7.96395 21.1326 10.9619 21.1967C8.61637 23.0339 5.67846 24.1146 2.48839 24.1146C1.91602 24.1146 1.38768 24.0945 0.839325 24.0305C3.86529 25.9718 7.45562 27.0925 11.3221 27.0925C23.8743 27.0925 30.7427 16.6937 30.7427 7.66788C30.7427 7.37169 30.7427 7.0755 30.7227 6.7793C32.0516 5.80667 33.2163 4.60189 34.1449 3.24901Z" fill="white"/>
</svg>
